<svg width="48" height="48" viewBox="0 0 48 48" stroke="#b57edc" fill="none" stroke-width="2" stroke-linecap="round" stroke-linejoin="round"  xmlns="http://www.w3.org/2000/svg">
    <circle cx="24" cy="24" r="19"/>
<line x1="20" y1="35" x2="28" y2="35"/>
<path d="M17 14.2361L18.2941 18.2188L18.5186 18.9098H19.2451H23.4329L20.0449 21.3713L19.4571 21.7984L19.6817 22.4894L20.9757 26.4721L17.5878 24.0106L17 23.5836L16.4122 24.0106L13.0243 26.4721L14.3183 22.4894L14.5429 21.7984L13.9551 21.3713L10.5671 18.9098H14.7549H15.4814L15.7059 18.2188L17 14.2361Z"/>
<path d="M32 14.2361L33.2941 18.2188L33.5186 18.9098H34.2451H38.4329L35.0449 21.3713L34.4571 21.7984L34.6817 22.4894L35.9757 26.4721L32.5878 24.0106L32 23.5836L31.4122 24.0106L28.0243 26.4721L29.3183 22.4894L29.5429 21.7984L28.9551 21.3713L25.5671 18.9098H29.7549H30.4814L30.7059 18.2188L32 14.2361Z"/>
</svg>