<svg xmlns="http://www.w3.org/2000/svg" xmlns:xlink="http://www.w3.org/1999/xlink" viewBox="0 0 2032 403" version="1.1" width="1000px" height="199px">
    <!-- Generator: Sketch 52.6 (67491) - http://www.bohemiancoding.com/sketch -->
    <title>facebook</title>
    <desc>Created with Sketch.</desc>
    <g id="Page-1" stroke="none" stroke-width="1" fill="none" fill-rule="evenodd" fill-color-id="-1" stroke-color-id="-1" recolor-fill="true" recolor-stroke="true">
        <g id="facebook" transform="translate(-7.000000, -7.000000)" fill="#4267B2FF" fill-rule="nonzero" fill-color-id="0" stroke-color-id="-1" recolor-fill="true" recolor-stroke="true">
            <g id="Group" transform="translate(0.157895, 0.157895)" fill-color-id="0" stroke-color-id="-1" recolor-fill="true" recolor-stroke="true" fill="#4267B2FF">
                <path d="M1052.82895,202.979323 C1036.06203,202.979323 1023.97556,208.477444 1011.71992,214.078947 L1011.71992,340.827068 C1023.45865,341.945489 1030.18797,341.945489 1041.32519,341.945489 C1081.56955,341.945489 1087.08647,323.515038 1087.08647,297.781955 L1087.08647,237.246241 C1087.08647,218.242481 1080.78008,202.979323 1052.82895,202.979323 Z M785.554511,196.06203 C757.631579,196.06203 751.259398,211.390977 751.259398,230.37594 L751.259398,241.043233 L819.81203,241.043233 L819.81203,230.37594 C819.81203,211.390977 813.43985,196.06203 785.554511,196.06203 Z M267.791353,327.988722 C267.791353,343.007519 274.87782,350.808271 290.516917,350.808271 C307.293233,350.808271 317.227444,345.338346 329.473684,339.718045 L329.473684,309.652256 L292.791353,309.652256 C275.422932,309.652256 267.791353,312.885338 267.791353,327.988722 Z M1312.81955,202.979323 C1284.84962,202.979323 1275.15977,218.242481 1275.15977,237.246241 L1275.15977,306.597744 C1275.15977,325.648496 1284.84962,340.958647 1312.81955,340.958647 C1340.71429,340.958647 1350.47932,325.648496 1350.47932,306.597744 L1350.47932,237.246241 C1350.46992,218.242481 1340.70489,202.979323 1312.81955,202.979323 Z M130.723684,405.75188 L48.5056391,405.75188 L48.5056391,206.74812 L7.42481203,206.74812 L7.42481203,138.176692 L48.5150376,138.176692 L48.5150376,96.9924812 C48.5150376,41.0432331 71.7011278,7.78195489 137.603383,7.78195489 L192.471805,7.78195489 L192.471805,76.3721805 L158.176692,76.3721805 C132.518797,76.3721805 130.827068,85.9586466 130.827068,103.843985 L130.723684,138.167293 L192.847744,138.167293 L185.582707,206.738722 L130.723684,206.738722 L130.723684,405.75188 Z M411.710526,406.268797 L343.18609,406.268797 L340.225564,388.93797 C308.93797,406.268797 281.015038,409.078947 262.593985,409.078947 C212.340226,409.078947 185.592105,375.507519 185.592105,329.078947 C185.592105,274.304511 216.804511,254.755639 272.640977,254.755639 L329.473684,254.755639 L329.473684,242.913534 C329.473684,214.953008 326.268797,206.74812 283.270677,206.74812 L212.969925,206.74812 L219.840226,138.176692 L296.682331,138.176692 C391.024436,138.176692 411.710526,167.979323 411.710526,243.468045 L411.710526,406.268797 Z M644.727444,211.776316 C602.086466,204.464286 589.840226,202.857143 569.323308,202.857143 C532.471805,202.857143 521.334586,210.986842 521.334586,242.283835 L521.334586,301.484962 C521.334586,332.781955 532.471805,340.949248 569.323308,340.949248 C589.840226,340.949248 602.086466,339.31391 644.727444,331.973684 L644.727444,398.862782 C607.37782,407.236842 583.045113,409.43609 562.481203,409.43609 C474.210526,409.43609 439.12594,363.016917 439.12594,295.958647 L439.12594,247.922932 C439.12594,180.808271 474.210526,134.304511 562.481203,134.304511 C583.045113,134.304511 607.37782,136.513158 644.727444,144.924812 L644.727444,211.776316 Z M902.020677,295.958647 L751.25,295.958647 L751.25,301.484962 C751.25,332.781955 762.396617,340.949248 799.238722,340.949248 C832.359023,340.949248 852.575188,339.31391 895.140977,331.973684 L895.140977,398.862782 C854.088346,407.236842 832.697368,409.43609 792.424812,409.43609 C704.144737,409.43609 669.041353,363.016917 669.041353,295.958647 L669.041353,241.033835 C669.041353,182.359023 695.084586,134.304511 785.545113,134.304511 C876.005639,134.304511 902.020677,181.804511 902.020677,241.033835 L902.020677,295.958647 Z M1169.28571,297.227444 C1169.28571,362.039474 1150.76128,409.31391 1038.54323,409.31391 C998.016917,409.31391 974.24812,405.75188 929.520677,398.87218 L929.520677,28.3834586 L1011.71053,14.6710526 L1011.71053,144.266917 C1029.47368,137.669173 1052.46241,134.31391 1073.38346,134.31391 C1155.58271,134.31391 1169.27632,171.165414 1169.27632,230.385338 L1169.27632,297.227444 L1169.28571,297.227444 Z M1432.75376,298.637218 C1432.75376,354.548872 1409.67105,408.778195 1313.09211,408.778195 C1216.46617,408.778195 1192.95113,354.548872 1192.95113,298.637218 L1192.95113,244.652256 C1192.95113,188.712406 1216.46617,134.473684 1313.09211,134.473684 C1409.67105,134.473684 1432.75376,188.712406 1432.75376,244.652256 L1432.75376,298.637218 Z M1696.04323,298.637218 C1696.04323,354.548872 1672.93233,408.778195 1576.37218,408.778195 C1479.74624,408.778195 1456.2312,354.548872 1456.2312,298.637218 L1456.2312,244.652256 C1456.2312,188.712406 1479.74624,134.473684 1576.37218,134.473684 C1672.93233,134.473684 1696.04323,188.712406 1696.04323,244.652256 L1696.04323,298.637218 Z M1966.2406,405.75188 L1877.15226,405.75188 L1801.80451,279.971805 L1801.80451,405.75188 L1719.58647,405.75188 L1719.58647,28.3740602 L1801.80451,14.6616541 L1801.80451,257.603383 L1877.15226,138.176692 L1966.2406,138.176692 L1883.98496,268.505639 L1966.2406,405.75188 Z M1576.09023,202.979323 C1548.16729,202.979323 1538.47744,218.242481 1538.47744,237.246241 L1538.47744,306.597744 C1538.47744,325.648496 1548.16729,340.958647 1576.09023,340.958647 C1603.97556,340.958647 1613.84398,325.648496 1613.84398,306.597744 L1613.84398,237.246241 C1613.84398,218.242481 1603.97556,202.979323 1576.09023,202.979323 Z M2013.16729,358.815789 C2027.01128,358.815789 2038.03571,370.103383 2038.03571,384.201128 C2038.03571,398.515038 2027.00188,409.680451 2013.06391,409.680451 C1999.19173,409.680451 1987.94173,398.515038 1987.94173,384.201128 C1987.94173,370.103383 1999.19173,358.815789 2013.06391,358.815789 L2013.16729,358.815789 Z M2013.06391,362.763158 C2001.90789,362.763158 1992.78195,372.359023 1992.78195,384.201128 C1992.78195,396.259398 2001.91729,405.733083 2013.16729,405.733083 C2024.42669,405.845865 2033.42105,396.259398 2033.42105,384.31391 C2033.42105,372.368421 2024.42669,362.763158 2013.16729,362.763158 L2013.06391,362.763158 Z M2008.33647,398.975564 L2003.82519,398.975564 L2003.82519,370.648496 C2006.19361,370.319549 2008.44925,369.990602 2011.83271,369.990602 C2016.11842,369.990602 2018.91917,370.892857 2020.6391,372.12406 C2022.30263,373.37406 2023.19549,375.281955 2023.19549,377.979323 C2023.19549,381.719925 2020.73308,383.966165 2017.69737,384.87782 L2017.69737,385.093985 C2020.16917,385.554511 2021.8515,387.791353 2022.42481,391.954887 C2023.08271,396.362782 2023.7688,398.045113 2024.21053,398.966165 L2019.48308,398.966165 C2018.81579,398.045113 2018.1297,395.460526 2017.56579,391.729323 C2016.90789,388.129699 2015.08459,386.776316 2011.47556,386.776316 L2008.34586,386.776316 L2008.34586,398.975564 L2008.33647,398.975564 Z M2008.33647,383.298872 L2011.60714,383.298872 C2015.31015,383.298872 2018.45865,381.93609 2018.45865,378.430451 C2018.45865,375.949248 2016.67293,373.477444 2011.60714,373.477444 C2010.13158,373.477444 2009.10714,373.590226 2008.33647,373.693609 L2008.33647,383.298872 Z" id="Shape" fill-color-id="0" stroke-color-id="-1" recolor-fill="true" recolor-stroke="true" fill="#4267B2FF"/>
            </g>
        </g>
    </g>
</svg>