<svg xmlns="http://www.w3.org/2000/svg" xmlns:xlink="http://www.w3.org/1999/xlink" viewBox="0 0 169 112" version="1.1" width="100px" height="67px">
    <!-- Generator: Sketch 52.6 (67491) - http://www.bohemiancoding.com/sketch -->
    <title>h-m</title>
    <desc>Created with Sketch.</desc>
    <g id="h-m" stroke="none" stroke-width="1" fill="none" fill-rule="evenodd" fill-color-id="-1" stroke-color-id="-1" recolor-fill="true" recolor-stroke="true">
        <g fill="#CC071EFF" fill-rule="nonzero" id="Shape" fill-color-id="0" stroke-color-id="-1" recolor-fill="true" recolor-stroke="true">
            <path d="M118.424,4.314 C124.475,1.288 127.58,1.753 127.658,4.779 C127.734,8.736 127.113,14.012 126.724,17.814 C124.398,38.454 120.673,55.291 120.363,76.551 C130.373,50.635 138.675,32.789 149.461,10.676 C152.875,3.615 155.125,4.934 157.918,3.615 C168.859,-1.274 169.246,1.752 167.772,7.804 C162.497,29.763 148.995,99.207 146.901,109.839 C146.28,112.943 142.866,111.701 142.09,110.46 C138.055,105.106 133.709,105.027 134.174,101.381 C136.658,83.691 145.504,38.92 147.754,28.367 C136.037,52.264 123.932,82.293 117.727,99.207 C116.407,102.777 114.002,102.545 112.528,99.906 C110.354,96.103 106.319,94.242 105.7,89.897 C103.526,76.007 108.104,49.471 108.725,32.634 C102.44,50.945 91.733,86.638 87.077,102.698 C85.138,109.372 78.698,108.208 80.405,101.845 C87.542,74.765 102.829,27.046 109.423,9.898 C110.975,5.788 115.086,6.021 118.424,4.314 Z M79.783,0.978 C77.687,0.513 71.635,3.771 67.911,4.315 C66.748,4.626 65.661,5.789 65.274,6.719 C59.375,20.297 54.1,33.179 49.6,44.816 C42.8041145,46.0622876 36.0267299,47.4074301 29.27,48.851 C34.779,34.885 40.289,20.997 45.642,7.727 C48.28,1.055 41.298,0.434 38.58,7.107 C35.089,15.72 28.493,31.935 21.2,50.792 C15.846,52.111 10.026,53.585 4.13,55.37 C-0.215,56.533 -0.371,57.696 1.491,60.336 C2.577,61.732 4.595,61.577 5.604,62.664 C8.165,65.301 9.717,68.483 14.293,68.948 C10.104,79.811 6.068,90.907 2.5,101.537 C0.172,108.287 6.767,109.684 9.25,102.546 C13.285,91.14 17.552,79.579 21.976,67.861 C25.623,67.086 34.391,65.224 42.538,63.361 C36.098,81.207 31.908,94.631 30.2,101.226 C29.891,102.467 30.511,103.088 30.743,103.708 C32.839,106.812 35.011,106.967 37.804,110.925 C38.503,112.012 41.063,112.554 41.995,109.916 C47.5569031,93.0310194 53.4809367,76.2674846 59.763,59.637 C62.169,59.016 66.515,58.007 69.152,54.128 C73.808,47.144 75.128,48.542 76.369,46.446 C77.765,43.731 76.756,41.325 71.791,41.868 C71.791,41.868 69.928,42.024 66.359,42.412 C71.945,28.212 76.913,16.186 80.326,6.952 C81.489,3.771 81.646,1.443 79.783,0.978 Z" fill-color-id="0" stroke-color-id="-1" recolor-fill="true" recolor-stroke="true" fill="#CC071EFF"/>
            <path d="M74.325,89.153 C75.132,88.129 75.864,87.072 76.524,86.096 C79.464,81.746 76.602,79.189 73.576,81.75 C73.144,82.147 72.695,82.58 72.249,83.03 C71.7527967,81.4778959 71.2604619,79.9245578 70.772,78.37 C72.159,76.67 73.509,74.925 74.661,73.137 C79.524,65.595 70.007,61.266 65.893,66.155 C63.722,68.716 64.265,71.276 64.885,73.526 C65.065,74.202 65.345,75.168 65.692,76.34 C64.1831131,77.9161238 62.7237373,79.5389123 61.316,81.206 C56.583,86.639 57.899,93.634 62.868,95.173 C65.864,96.102 68.691,94.748 71.14,92.588 C71.258,92.896 71.371,93.189 71.481,93.467 C72.8,96.726 76.913,95.717 75.283,91.76 C75.021,91.095 74.693,90.2 74.325,89.153 Z M67.589,82.316 C67.991,83.583 68.424,84.914 68.856,86.188 C68.315,86.639 67.766,87.095 67.213,87.415 C65.289,88.528 63.876,87.337 66.359,84.001 C66.765,83.425 67.181,82.867 67.589,82.316 Z M69.142,72.815 C68.999,72.454 68.917,72.1 68.842,71.819 C67.45,66.619 73.41,68.008 70.395,71.431 C69.967,71.916 69.578,72.396 69.142,72.815 Z" fill-color-id="0" stroke-color-id="-1" recolor-fill="true" recolor-stroke="true" fill="#CC071EFF"/>
        </g>
    </g>
</svg>