<svg xmlns="http://www.w3.org/2000/svg" xmlns:xlink="http://www.w3.org/1999/xlink" viewBox="0 0 213 38" version="1.1" width="100px" height="18px">
    <!-- Generator: Sketch 52.6 (67491) - http://www.bohemiancoding.com/sketch -->
    <title>heineken</title>
    <desc>Created with Sketch.</desc>
    <g id="Page-1" stroke="none" stroke-width="1" fill="none" fill-rule="evenodd" fill-color-id="-1" stroke-color-id="-1" recolor-fill="true" recolor-stroke="true">
        <g id="heineken" fill-color-id="-1" stroke-color-id="-1" recolor-fill="true" recolor-stroke="true">
            <path d="M20.326,0.032 L24.701,13.344 L24.826,13.344 L20.451,0.032 L20.326,0.032 Z M39.42,15.125 L39.295,15.219 L27.983,23.469 L32.295,36.844 L32.326,36.938 L32.42,36.876 L28.14,23.5 L39.45,15.22 L39.42,15.125 Z M19.39,29.75 L8.044,37.938 L8.14,38 L19.452,29.78 L19.39,29.75 Z" id="Shape" fill="#000000" fill-rule="nonzero" fill-color-id="0" stroke-color-id="-1" recolor-fill="true" recolor-stroke="true"/>
            <path d="M84.002,20.069 C84.002,21.354 83.447,21.737 81.364,22.464 C79.697,23.091 78.414,23.368 78.031,23.368 C77.336,23.368 77.025,22.847 77.025,21.77 C77.025,19.202 77.753,16.077 80.462,16.077 C82.962,16.077 84.002,18.785 84.002,20.069 Z M56.92,31.284 C56.92,31.074 56.887,30.938 56.784,30.833 C56.505,30.553 55.464,30.382 54.944,29.86 C54.564,29.477 54.318,28.819 54.318,27.292 L54.318,21.422 C54.318,20.971 54.423,20.694 54.874,20.694 L60.847,20.694 C61.298,20.694 61.402,20.97 61.402,21.423 L61.402,27.292 C61.402,28.819 61.16,29.478 60.777,29.86 C60.257,30.38 59.215,30.553 58.937,30.833 C58.832,30.938 58.798,31.075 58.798,31.283 C58.798,32.185 58.938,33.091 59.075,33.227 C59.215,33.367 59.423,33.401 59.875,33.401 L69.63,33.401 C70.081,33.401 70.29,33.368 70.428,33.227 C70.568,33.09 70.708,32.185 70.708,31.284 C70.708,31.074 70.67,30.938 70.568,30.833 C70.324,30.591 69.248,30.382 68.726,29.86 C68.346,29.477 68.137,28.749 68.137,27.568 L68.137,11.354 C68.137,10.521 68.347,9.964 68.657,9.654 C69.213,9.098 70.324,8.993 70.567,8.749 C70.671,8.645 70.707,8.438 70.707,8.264 C70.707,7.639 70.567,6.702 70.428,6.563 C70.288,6.423 70.151,6.388 69.63,6.388 L60.22,6.388 C59.84,6.388 59.7,6.424 59.596,6.528 C59.492,6.633 59.387,7.362 59.387,8.298 C59.387,8.471 59.422,8.68 59.492,8.748 C59.664,8.924 60.534,9.202 60.882,9.548 C61.262,9.931 61.402,10.348 61.402,11.528 L61.402,16.145 C61.402,16.319 61.227,16.561 60.985,16.561 L54.735,16.561 C54.491,16.561 54.318,16.319 54.318,16.145 L54.318,11.528 C54.318,10.348 54.458,9.931 54.839,9.548 C55.187,9.201 56.054,8.924 56.229,8.748 C56.299,8.681 56.333,8.472 56.333,8.298 C56.333,7.361 56.228,6.632 56.124,6.528 C56.02,6.424 55.88,6.388 55.499,6.388 L46.09,6.388 C45.57,6.388 45.43,6.424 45.29,6.563 C45.153,6.702 45.013,7.639 45.013,8.263 C45.013,8.438 45.048,8.645 45.153,8.749 C45.396,8.993 46.507,9.098 47.063,9.654 C47.374,9.964 47.583,10.521 47.583,11.354 L47.583,27.568 C47.583,28.748 47.374,29.477 46.993,29.86 C46.473,30.38 45.396,30.59 45.153,30.833 C45.048,30.938 45.013,31.075 45.013,31.283 C45.013,32.185 45.153,33.091 45.29,33.227 C45.43,33.367 45.57,33.401 46.09,33.401 L55.846,33.401 C56.297,33.401 56.506,33.368 56.646,33.227 C56.784,33.09 56.92,32.185 56.92,31.284 Z M89.177,30.797 C90.183,29.791 90.428,29.199 90.428,28.713 C90.428,28.192 90.288,27.775 89.872,27.359 C89.419,26.908 89.039,26.838 88.69,26.838 C88.204,26.838 87.995,26.977 87.684,27.291 C86.156,28.818 84.211,29.65 81.85,29.65 C79.455,29.65 77.961,28.054 77.961,27.046 C77.961,26.77 78.205,26.525 78.828,26.352 C85.496,24.269 88.273,22.881 89.314,21.838 C89.904,21.283 90.147,20.623 90.147,20.033 C90.147,17.393 86.33,12.708 80.461,12.708 C78.031,12.708 75.566,13.678 73.726,15.518 C71.886,17.36 70.74,19.962 70.74,23.505 C70.74,26.907 71.817,29.269 73.692,31.144 C75.567,33.019 78.275,33.956 81.227,33.956 C84.247,33.956 87.095,32.881 89.177,30.796 L89.177,30.797 Z M100.045,13.888 C100.045,13.438 99.801,13.263 99.42,13.263 L92.718,13.263 C92.336,13.263 92.198,13.263 92.092,13.403 C91.954,13.542 91.817,14.479 91.817,15.105 C91.817,15.278 91.887,15.415 91.954,15.52 C92.198,15.832 92.718,15.937 93.17,16.319 C93.482,16.631 93.622,17.292 93.622,18.298 L93.622,27.568 C93.622,28.75 93.482,29.513 93.134,29.861 C92.614,30.381 91.745,30.625 91.504,30.867 C91.435,30.939 91.399,31.076 91.399,31.32 C91.399,32.222 91.539,33.09 91.676,33.228 C91.781,33.332 91.953,33.402 92.336,33.402 L101.26,33.402 C101.641,33.402 101.815,33.332 101.92,33.228 C102.058,33.091 102.162,32.222 102.162,31.32 C102.162,31.076 102.128,30.939 102.058,30.867 C101.815,30.625 101.016,30.383 100.496,29.861 C100.15,29.513 100.046,28.75 100.046,27.569 L100.046,13.888 L100.045,13.888 Z M96.329,5.138 C94.42,5.138 92.857,6.633 92.857,8.508 C92.857,10.417 94.42,11.911 96.329,11.911 C98.274,11.911 99.837,10.417 99.837,8.508 C99.837,6.632 98.275,5.138 96.329,5.138 Z M123.239,18.645 C123.239,14.755 121.225,12.778 118.065,12.778 C116.571,12.778 114.975,13.263 113.377,14.236 C112.821,14.584 112.648,14.686 112.509,14.686 C111.953,14.686 112.335,13.262 111.329,13.262 L105.219,13.262 C104.835,13.262 104.732,13.262 104.593,13.402 C104.419,13.576 104.281,14.478 104.281,15.104 C104.281,15.277 104.316,15.414 104.421,15.519 C104.697,15.798 105.219,15.902 105.635,16.318 C105.949,16.63 106.085,17.291 106.085,18.297 L106.085,27.567 C106.085,28.749 105.981,29.512 105.635,29.86 C105.149,30.345 104.316,30.624 104.073,30.867 C104.004,30.937 103.968,31.075 103.968,31.319 C103.968,32.221 104.073,33.089 104.213,33.227 C104.317,33.331 104.524,33.401 104.907,33.401 L113.657,33.401 C114.073,33.401 114.211,33.331 114.314,33.227 C114.49,33.054 114.628,32.221 114.628,31.319 C114.628,31.075 114.593,30.938 114.523,30.867 C114.247,30.591 113.448,30.346 112.961,29.86 C112.614,29.512 112.441,28.749 112.441,27.568 L112.441,20.728 C112.441,17.917 114.001,17.048 115.148,17.048 C116.329,17.048 116.989,17.917 116.989,19.756 L116.989,29.376 C116.989,31.944 118.621,33.645 121.572,33.645 C124.835,33.645 126.223,31.285 126.223,30.798 C126.223,30.382 125.565,29.548 125.148,29.548 C124.661,29.548 123.968,30.173 123.62,30.173 C123.378,30.173 123.24,29.999 123.24,29.443 L123.24,18.646 L123.239,18.645 Z M187.576,30.797 C188.583,29.791 188.826,29.199 188.826,28.713 C188.826,28.192 188.686,27.775 188.27,27.359 C187.82,26.908 187.434,26.838 187.09,26.838 C186.603,26.838 186.395,26.977 186.082,27.291 C184.554,28.818 182.609,29.65 180.248,29.65 C177.853,29.65 176.359,28.054 176.359,27.046 C176.359,26.77 176.602,26.525 177.227,26.352 C183.894,24.269 186.671,22.881 187.713,21.838 C188.303,21.283 188.546,20.623 188.546,20.033 C188.546,17.393 184.727,12.708 178.858,12.708 C176.426,12.708 173.962,13.678 172.122,15.52 C170.282,17.36 169.137,19.963 169.137,23.506 C169.137,26.908 170.213,29.27 172.088,31.145 C173.963,33.02 176.671,33.957 179.622,33.957 C182.645,33.957 185.493,32.881 187.576,30.797 Z M182.402,20.069 C182.402,21.354 181.846,21.737 179.763,22.464 C178.096,23.091 176.811,23.368 176.428,23.368 C175.735,23.368 175.422,22.847 175.422,21.77 C175.422,19.2 176.152,16.076 178.86,16.076 C181.36,16.076 182.402,18.785 182.402,20.069 Z M144.903,30.797 C145.909,29.791 146.155,29.199 146.155,28.713 C146.155,28.192 146.015,27.775 145.598,27.359 C145.148,26.908 144.766,26.838 144.418,26.838 C143.929,26.838 143.723,26.977 143.41,27.291 C141.883,28.818 139.937,29.65 137.576,29.65 C135.181,29.65 133.687,28.054 133.687,27.046 C133.687,26.77 133.931,26.525 134.557,26.352 C141.222,24.269 143.999,22.881 145.04,21.838 C145.632,21.283 145.874,20.623 145.874,20.033 C145.874,17.393 142.056,12.708 136.186,12.708 C133.756,12.708 131.291,13.678 129.452,15.52 C127.613,17.362 126.466,19.963 126.466,23.506 C126.466,26.908 127.542,29.27 129.416,31.145 C131.292,33.02 134.001,33.957 136.952,33.957 C139.973,33.957 142.822,32.881 144.903,30.797 Z M139.731,20.069 C139.731,21.354 139.174,21.737 137.092,22.464 C135.424,23.091 134.142,23.368 133.758,23.368 C133.063,23.368 132.752,22.847 132.752,21.77 C132.752,19.2 133.482,16.076 136.188,16.076 C138.688,16.076 139.731,18.785 139.731,20.069 Z M209.239,18.645 C209.239,14.755 207.227,12.777 204.069,12.777 C202.575,12.777 200.977,13.262 199.381,14.236 C198.824,14.583 198.649,14.686 198.513,14.686 C197.957,14.686 198.338,13.262 197.333,13.262 L191.221,13.262 C190.839,13.262 190.735,13.262 190.596,13.402 C190.422,13.576 190.284,14.479 190.284,15.105 C190.284,15.277 190.319,15.415 190.424,15.52 C190.701,15.799 191.222,15.903 191.639,16.319 C191.951,16.631 192.09,17.292 192.09,18.298 L192.09,27.568 C192.09,28.75 191.986,29.513 191.64,29.861 C191.152,30.346 190.32,30.625 190.077,30.867 C190.008,30.939 189.973,31.076 189.973,31.32 C189.973,32.222 190.077,33.09 190.213,33.228 C190.32,33.332 190.528,33.402 190.91,33.402 L199.658,33.402 C200.076,33.402 200.215,33.332 200.32,33.228 C200.494,33.054 200.631,32.222 200.631,31.32 C200.631,31.076 200.598,30.939 200.527,30.867 C200.25,30.592 199.451,30.346 198.965,29.861 C198.617,29.513 198.442,28.75 198.442,27.568 L198.442,20.73 C198.442,17.918 200.006,17.05 201.153,17.05 C202.335,17.05 202.993,17.918 202.993,19.756 L202.993,29.376 C202.993,31.945 204.626,33.646 207.577,33.646 C210.841,33.646 212.229,31.286 212.229,30.799 C212.229,30.383 211.569,29.549 211.153,29.549 C210.667,29.549 209.973,30.174 209.626,30.174 C209.382,30.174 209.241,30 209.241,29.444 L209.241,18.644 L209.239,18.644 L209.239,18.645 Z M154.729,5.764 L148.063,5.764 C147.645,5.764 147.471,5.764 147.37,5.939 C147.23,6.111 147.124,6.979 147.124,7.569 C147.124,7.778 147.161,7.917 147.229,8.055 C147.471,8.299 148.411,8.541 148.827,8.958 C149.173,9.306 149.348,10 149.348,12.637 L149.348,26.526 C149.348,28.854 149.106,29.583 148.828,29.86 C148.341,30.345 147.509,30.624 147.265,30.866 C147.197,30.938 147.161,31.075 147.161,31.319 C147.161,32.221 147.265,33.089 147.403,33.227 C147.508,33.331 147.645,33.401 148.098,33.401 L156.813,33.401 C157.264,33.401 157.403,33.331 157.506,33.227 C157.646,33.09 157.818,32.221 157.818,31.319 C157.818,31.075 157.785,30.938 157.679,30.866 C157.437,30.624 156.603,30.345 156.151,29.86 C155.771,29.512 155.631,28.749 155.631,27.567 L155.631,26.77 C155.631,26.319 155.771,26.178 156.534,25.415 C156.88,25.104 157.192,24.862 157.436,24.862 C157.784,24.862 158.06,25.104 161.879,32.811 C162.121,33.297 162.226,33.401 162.851,33.401 L168.511,33.401 C168.927,33.401 169.067,33.331 169.171,33.227 C169.309,33.09 169.448,32.221 169.448,31.319 C169.448,31.075 169.414,30.938 169.344,30.866 C169.101,30.624 167.644,30.45 167.33,29.86 C162.297,21.354 162.156,21.075 162.156,20.555 C162.156,20.104 164.379,17.882 166.218,16.424 C167.4,15.486 168.162,16.11 168.162,15 C168.162,13.715 167.989,13.262 167.745,13.262 L159.345,13.262 C158.615,13.262 158.546,13.679 158.546,15.242 C158.546,15.762 160.003,15.832 160.003,16.56 C160.003,17.185 156.463,20.589 155.873,20.589 C155.663,20.589 155.628,20.449 155.628,19.859 L155.628,6.735 C155.632,6.18 155.249,5.764 154.728,5.764 L154.729,5.764 Z" id="Shape" fill="#008200FF" fill-rule="nonzero" fill-color-id="1" stroke-color-id="-1" recolor-fill="true" recolor-stroke="true"/>
            <polygon id="Path" fill="#FF2B00FF" points="19.365 0.318 23.975 14.336 38.73 14.388 26.822 23.103 31.333 37.153 19.365 28.522 7.397 37.152 11.908 23.102 0 14.389 14.756 14.337 19.366 0.318" fill-color-id="2" stroke-color-id="-1" recolor-fill="true" recolor-stroke="true"/>
            <path d="M209.257,5.032 C209.84,5.032 210.401,5.179 210.938,5.472 C211.470283,5.75978539 211.908412,6.19479068 212.2,6.725 C212.508,7.27 212.662,7.84 212.662,8.435 C212.661351,9.03122541 212.504844,9.61692269 212.208,10.134 C211.915768,10.6633785 211.479611,11.0991889 210.95,11.391 C209.899445,11.9902428 208.610555,11.9902428 207.56,11.391 C207.032309,11.0966411 206.596778,10.6614572 206.302,10.134 C206.008831,9.61606607 205.854506,9.03115007 205.854,8.436 C205.854,7.84 206.007,7.27 206.312,6.725 C206.622,6.18 207.042,5.762 207.578,5.472 C208.091354,5.18456319 208.669654,5.03310351 209.258,5.032 M209.262,5.699 C208.79087,5.69930223 208.327601,5.81976574 207.916,6.049 C207.486,6.284 207.146,6.619 206.897,7.059 C206.409697,7.90719922 206.406276,8.94962016 206.888,9.801 C207.13,10.234 207.468,10.571 207.902,10.814 C208.742841,11.2999368 209.779159,11.2999368 210.62,10.814 C211.046268,10.5780511 211.397631,10.2270349 211.634,9.801 C211.877,9.368 211.999,8.914 211.999,8.437 C211.999,7.957 211.874,7.497 211.625,7.059 C211.390547,6.63092014 211.036916,6.28006808 210.607,6.049 C210.195744,5.8198065 209.732809,5.69933995 209.262,5.699 M207.72,10.258 L207.72,6.645 L208.453,6.645 C209.141,6.645 209.525,6.648 209.608,6.654 C209.851,6.674 210.039,6.724 210.172,6.801 C210.315484,6.88202572 210.432772,7.0024365 210.51,7.148 C210.602421,7.30373629 210.650167,7.48191772 210.648,7.663 C210.652525,7.9114084 210.559963,8.15178237 210.39,8.333 C210.221,8.518 209.982,8.632 209.675,8.676 C209.765971,8.70793386 209.851097,8.75455082 209.927,8.814 C209.988,8.862 210.068,8.954 210.172,9.09 C210.198,9.126 210.288,9.272 210.439,9.53 L210.866,10.259 L209.959,10.259 L209.657,9.673 C209.453,9.279 209.283,9.032 209.15,8.931 C209.00391,8.82320961 208.825398,8.76852684 208.644,8.776 L208.454,8.776 L208.454,10.26 L207.72,10.26 M208.453,8.205 L208.75,8.205 C209.174,8.205 209.437,8.188 209.537,8.155 C209.735653,8.09667469 209.871816,7.91403671 209.871,7.707 C209.872804,7.61026632 209.840996,7.51590223 209.781,7.44 C209.72151,7.357088 209.635387,7.29708395 209.537,7.27 C209.431,7.236 209.168,7.218 208.75,7.218 L208.453,7.218 L208.453,8.205" id="Shape" fill="#008200FF" fill-rule="nonzero" fill-color-id="1" stroke-color-id="-1" recolor-fill="true" recolor-stroke="true"/>
        </g>
    </g>
</svg>